<svg width="40" height="40" viewBox="0 0 40 40" fill="none" xmlns="http://www.w3.org/2000/svg">
<rect width="40" height="40" rx="20" fill="#D86570"/>
<path d="M10 14.7143H13.8095V29H10V14.7143ZM11.8933 12.8095H11.8724C10.7352 12.8095 10 11.9619 10 10.9038C10 9.82286 10.7581 9 11.9152 9C13.0743 9 13.7876 9.82286 13.8095 10.9038C13.8095 11.9619 13.0743 12.8095 11.8933 12.8095ZM30 19.9524C30 17.059 27.6552 14.7143 24.7619 14.7143C22.9886 14.7143 21.4238 15.5981 20.4762 16.9467V14.7143H16.6667V29H20.4762V21.381C20.4762 19.8029 21.7552 18.5238 23.3333 18.5238C24.9114 18.5238 26.1905 19.8029 26.1905 21.381V29H30C30 29 30 20.3533 30 19.9524Z" fill="white"/>
</svg>
