<svg width="40" height="40" viewBox="0 0 40 40" fill="none" xmlns="http://www.w3.org/2000/svg">
<rect width="40" height="40" rx="20" fill="#D86570"/>
<path d="M31.0298 15.2806L28.2267 18.0837C27.6604 24.6481 22.1245 29.7499 15.4992 29.7499C14.1379 29.7499 13.0158 29.5343 12.1636 29.1087C11.4764 28.7646 11.1951 28.3962 11.1248 28.2912C11.0621 28.1972 11.0215 28.0902 11.0059 27.9782C10.9904 27.8663 11.0004 27.7523 11.0351 27.6448C11.0698 27.5372 11.1283 27.4389 11.2064 27.3572C11.2844 27.2754 11.3799 27.2124 11.4858 27.1727C11.5101 27.1634 13.7583 26.2999 15.1861 24.6565C14.3942 24.0055 13.703 23.241 13.1348 22.3877C11.9723 20.6618 10.6711 17.6637 11.0723 13.1834C11.085 13.041 11.1382 12.9052 11.2255 12.7921C11.3128 12.6789 11.4306 12.593 11.565 12.5445C11.6995 12.4961 11.845 12.487 11.9844 12.5185C12.1239 12.55 12.2514 12.6206 12.352 12.7221C12.3848 12.7549 15.472 15.8252 19.2464 16.8209V16.2499C19.2449 15.6512 19.3633 15.0583 19.5945 14.5061C19.8257 13.9538 20.1651 13.4534 20.5926 13.0343C21.0078 12.6197 21.5019 12.2924 22.0457 12.0718C22.5894 11.8512 23.1718 11.7418 23.7586 11.7499C24.5457 11.7577 25.3173 11.969 25.9986 12.3633C26.6799 12.7575 27.2475 13.3214 27.6464 13.9999H30.4992C30.6476 13.9998 30.7927 14.0437 30.9162 14.1261C31.0396 14.2085 31.1358 14.3257 31.1927 14.4628C31.2495 14.6 31.2643 14.7509 31.2353 14.8964C31.2064 15.042 31.1348 15.1757 31.0298 15.2806Z" fill="white"/>
</svg>
